<svg xmlns="http://www.w3.org/2000/svg" xmlns:xlink="http://www.w3.org/1999/xlink" width="500" zoomAndPan="magnify" viewBox="0 0 375 374.999991" height="500" preserveAspectRatio="xMidYMid meet" version="1.0"><defs><clipPath id="3102270d09"><path d="M 88.492188 50.601562 L 287 50.601562 L 287 333.765625 L 88.492188 333.765625 Z M 88.492188 50.601562 " clip-rule="nonzero"/></clipPath><clipPath id="6d33b65545"><path d="M 112.152344 84.429688 L 262.847656 84.429688 L 262.847656 235.128906 L 112.152344 235.128906 Z M 112.152344 84.429688 " clip-rule="nonzero"/></clipPath><clipPath id="36523d4e09"><path d="M 187.5 84.429688 C 145.886719 84.429688 112.152344 118.164062 112.152344 159.777344 C 112.152344 201.394531 145.886719 235.128906 187.5 235.128906 C 229.113281 235.128906 262.847656 201.394531 262.847656 159.777344 C 262.847656 118.164062 229.113281 84.429688 187.5 84.429688 Z M 187.5 84.429688 " clip-rule="nonzero"/></clipPath><clipPath id="818e50d9ee"><path d="M 103.445312 67.421875 L 271.445312 67.421875 L 271.445312 307.421875 L 103.445312 307.421875 Z M 103.445312 67.421875 " clip-rule="nonzero"/></clipPath></defs><g clip-path="url(#3102270d09)"><path fill="#ffffff" d="M 187.5 50.601562 C 132.832031 50.601562 88.492188 94.941406 88.492188 149.609375 C 88.492188 223.863281 187.5 333.480469 187.5 333.480469 C 187.5 333.480469 286.507812 223.863281 286.507812 149.609375 C 286.507812 94.941406 242.167969 50.601562 187.5 50.601562 Z M 187.5 184.96875 C 167.980469 184.96875 152.140625 169.125 152.140625 149.609375 C 152.140625 130.089844 167.980469 114.246094 187.5 114.246094 C 207.019531 114.246094 222.859375 130.089844 222.859375 149.609375 C 222.859375 169.125 207.019531 184.96875 187.5 184.96875 Z M 187.5 184.96875 " fill-opacity="1" fill-rule="nonzero"/></g><g clip-path="url(#6d33b65545)"><g clip-path="url(#36523d4e09)"><path fill="#ffffff" d="M 112.152344 84.429688 L 262.847656 84.429688 L 262.847656 235.128906 L 112.152344 235.128906 Z M 112.152344 84.429688 " fill-opacity="1" fill-rule="nonzero"/></g></g><g clip-path="url(#818e50d9ee)"><path fill="#a80aa8" d="M 187.496094 67.421875 C 141.089844 67.421875 103.445312 105.066406 103.445312 151.476562 C 103.445312 214.515625 187.496094 307.574219 187.496094 307.574219 C 187.496094 307.574219 271.550781 214.515625 271.550781 151.476562 C 271.550781 105.066406 233.90625 67.421875 187.496094 67.421875 Z M 187.496094 181.492188 C 170.925781 181.492188 157.480469 168.046875 157.480469 151.476562 C 157.480469 134.90625 170.925781 121.457031 187.496094 121.457031 C 204.066406 121.457031 217.515625 134.90625 217.515625 151.476562 C 217.515625 168.046875 204.066406 181.492188 187.496094 181.492188 Z M 187.496094 181.492188 " fill-opacity="1" fill-rule="nonzero"/></g></svg>