<svg xmlns="http://www.w3.org/2000/svg" xmlns:xlink="http://www.w3.org/1999/xlink" width="1920" zoomAndPan="magnify" viewBox="0 0 1440 540.000001" height="720" preserveAspectRatio="xMidYMid meet" version="1.0"><defs><g/><clipPath id="82f93e6fbe"><path d="M 55.230469 108.21875 L 380.128906 108.21875 L 380.128906 430.78125 L 55.230469 430.78125 Z M 55.230469 108.21875 " clip-rule="nonzero"/></clipPath><clipPath id="5a2f922830"><path d="M 217.679688 108.21875 C 127.960938 108.21875 55.230469 180.425781 55.230469 269.5 C 55.230469 358.574219 127.960938 430.78125 217.679688 430.78125 C 307.398438 430.78125 380.128906 358.574219 380.128906 269.5 C 380.128906 180.425781 307.398438 108.21875 217.679688 108.21875 Z M 217.679688 108.21875 " clip-rule="nonzero"/></clipPath><clipPath id="ef6af2fbca"><path d="M 68.894531 121.78125 L 366.84375 121.78125 L 366.84375 417.214844 L 68.894531 417.214844 Z M 68.894531 121.78125 " clip-rule="nonzero"/></clipPath><clipPath id="1c577ff215"><path d="M 217.683594 121.78125 C 135.511719 121.78125 68.894531 187.914062 68.894531 269.496094 C 68.894531 351.078125 135.511719 417.214844 217.683594 417.214844 C 299.855469 417.214844 366.46875 351.078125 366.46875 269.496094 C 366.46875 187.914062 299.855469 121.78125 217.683594 121.78125 Z M 217.683594 121.78125 " clip-rule="nonzero"/></clipPath><clipPath id="5dddc725b9"><path d="M 112.070312 163.886719 L 323.179688 163.886719 L 323.179688 374.996094 L 112.070312 374.996094 Z M 112.070312 163.886719 " clip-rule="nonzero"/></clipPath><clipPath id="d4019f4d40"><path d="M 229.023438 155.601562 L 315.863281 155.601562 L 315.863281 279.871094 L 229.023438 279.871094 Z M 229.023438 155.601562 " clip-rule="nonzero"/></clipPath><clipPath id="36779622a2"><path d="M 247.941406 173.082031 L 297.03125 173.082031 L 297.03125 222.171875 L 247.941406 222.171875 Z M 247.941406 173.082031 " clip-rule="nonzero"/></clipPath><clipPath id="7360653757"><path d="M 272.488281 173.082031 C 258.933594 173.082031 247.941406 184.070312 247.941406 197.628906 C 247.941406 211.183594 258.933594 222.171875 272.488281 222.171875 C 286.042969 222.171875 297.03125 211.183594 297.03125 197.628906 C 297.03125 184.070312 286.042969 173.082031 272.488281 173.082031 Z M 272.488281 173.082031 " clip-rule="nonzero"/></clipPath><clipPath id="f5dbe5aaab"><path d="M 238.296875 166.425781 L 306.421875 166.425781 L 306.421875 263.746094 L 238.296875 263.746094 Z M 238.296875 166.425781 " clip-rule="nonzero"/></clipPath></defs><g fill="#000000" fill-opacity="1"><g transform="translate(417.193612, 355.942146)"><g><path d="M 104.484375 0 L 68.359375 0 L 68.359375 -123.71875 L 3.890625 -123.71875 L 3.890625 -157.515625 L 168.96875 -157.515625 L 168.96875 -123.71875 L 104.484375 -123.71875 Z M 104.484375 0 "/></g></g></g><g fill="#000000" fill-opacity="1"><g transform="translate(590.020531, 355.942146)"><g><path d="M 46.421875 0 L 9.90625 0 L 9.90625 -109.34375 C 16.25 -110.125 23.140625 -110.804688 30.578125 -111.390625 C 38.023438 -111.972656 45.40625 -112.425781 52.71875 -112.75 C 60.039062 -113.070312 66.710938 -113.328125 72.734375 -113.515625 C 78.753906 -113.710938 83.515625 -113.8125 87.015625 -113.8125 L 110.515625 -113.8125 L 110.515625 -80.015625 L 71.46875 -80.015625 C 69.132812 -80.015625 66.378906 -79.945312 63.203125 -79.8125 C 60.035156 -79.6875 56.929688 -79.523438 53.890625 -79.328125 C 50.847656 -79.140625 48.359375 -78.914062 46.421875 -78.65625 Z M 46.421875 0 "/></g></g></g><g fill="#000000" fill-opacity="1"><g transform="translate(707.698174, 355.942146)"><g><path d="M 80.984375 -117.890625 C 97.691406 -117.890625 110.867188 -116.300781 120.515625 -113.125 C 130.160156 -109.957031 137.019531 -105.132812 141.09375 -98.65625 C 145.175781 -92.1875 147.21875 -83.96875 147.21875 -74 L 147.21875 -2.71875 C 138.28125 -1.425781 129.28125 -0.328125 120.21875 0.578125 C 111.15625 1.484375 102.507812 2.160156 94.28125 2.609375 C 86.0625 3.066406 78.71875 3.296875 72.25 3.296875 C 51.007812 3.296875 34.882812 0.382812 23.875 -5.4375 C 12.875 -11.257812 7.375 -20.644531 7.375 -33.59375 L 7.375 -33.796875 C 7.375 -40.910156 9.445312 -47.054688 13.59375 -52.234375 C 17.738281 -57.421875 24.40625 -61.46875 33.59375 -64.375 C 42.789062 -67.289062 55.03125 -68.75 70.3125 -68.75 C 76.394531 -68.75 82.671875 -68.648438 89.140625 -68.453125 C 95.617188 -68.265625 102.546875 -67.847656 109.921875 -67.203125 L 109.921875 -67.78125 C 109.921875 -72.050781 109.046875 -75.644531 107.296875 -78.5625 C 105.554688 -81.476562 102.160156 -83.710938 97.109375 -85.265625 C 92.054688 -86.816406 84.484375 -87.59375 74.390625 -87.59375 C 64.929688 -87.59375 55.019531 -86.878906 44.65625 -85.453125 C 34.300781 -84.023438 24.53125 -82.148438 15.34375 -79.828125 L 23.6875 -111.671875 C 32.101562 -113.359375 41.296875 -114.816406 51.265625 -116.046875 C 61.242188 -117.273438 71.148438 -117.890625 80.984375 -117.890625 Z M 44.671875 -35.734375 L 44.671875 -35.546875 C 44.671875 -31.523438 47.421875 -28.539062 52.921875 -26.59375 C 58.421875 -24.65625 68.226562 -23.6875 82.34375 -23.6875 C 88.820312 -23.6875 94.359375 -23.785156 98.953125 -23.984375 C 103.546875 -24.179688 107.460938 -24.472656 110.703125 -24.859375 L 110.703125 -46.03125 C 106.691406 -46.675781 102.128906 -47.128906 97.015625 -47.390625 C 91.898438 -47.648438 87.007812 -47.78125 82.34375 -47.78125 C 69.132812 -47.78125 59.550781 -46.90625 53.59375 -45.15625 C 47.644531 -43.40625 44.671875 -40.265625 44.671875 -35.734375 Z M 44.671875 -35.734375 "/></g></g></g><g fill="#000000" fill-opacity="1"><g transform="translate(864.990103, 355.942146)"><g><path d="M 83.125 2.53125 C 66.03125 2.53125 51.914062 -0.0546875 40.78125 -5.234375 C 29.644531 -10.421875 21.328125 -17.578125 15.828125 -26.703125 C 10.328125 -35.828125 7.578125 -46.21875 7.578125 -57.875 L 7.578125 -58.078125 C 7.578125 -69.722656 10.328125 -80.046875 15.828125 -89.046875 C 21.328125 -98.046875 29.675781 -105.101562 40.875 -110.21875 C 52.082031 -115.332031 66.226562 -117.890625 83.3125 -117.890625 C 93.289062 -117.890625 103.066406 -116.953125 112.640625 -115.078125 C 122.222656 -113.203125 130.507812 -110.96875 137.5 -108.375 L 123.140625 -79.046875 C 118.347656 -80.859375 112.742188 -82.347656 106.328125 -83.515625 C 99.921875 -84.679688 93.03125 -85.265625 85.65625 -85.265625 C 72.707031 -85.265625 62.671875 -83.03125 55.546875 -78.5625 C 48.421875 -74.09375 44.859375 -67.265625 44.859375 -58.078125 L 44.859375 -57.6875 C 44.859375 -48.226562 48.421875 -41.234375 55.546875 -36.703125 C 62.671875 -32.171875 72.832031 -29.90625 86.03125 -29.90625 C 92.769531 -29.90625 99.441406 -30.519531 106.046875 -31.75 C 112.648438 -32.976562 118.539062 -34.566406 123.71875 -36.515625 L 137.703125 -6.984375 C 133.691406 -5.046875 128.476562 -3.363281 122.0625 -1.9375 C 115.65625 -0.519531 109.019531 0.578125 102.15625 1.359375 C 95.289062 2.140625 88.945312 2.53125 83.125 2.53125 Z M 83.125 2.53125 "/></g></g></g><g fill="#000000" fill-opacity="1"><g transform="translate(1006.552842, 355.942146)"><g><path d="M 46.609375 -58.078125 L 47 -57.6875 L 46.609375 -57.09375 L 46.609375 0 L 9.90625 0 L 9.90625 -157.515625 L 46.609375 -157.515625 Z M 91.484375 -59.8125 L 149.15625 0 L 102.359375 0 L 47 -57.6875 L 102.15625 -113.03125 L 148.1875 -113.03125 Z M 91.484375 -59.8125 "/></g></g></g><g fill="#000000" fill-opacity="1"><g transform="translate(1155.688873, 355.942146)"><g><path d="M 46.21875 0 L 9.90625 0 L 9.90625 -157.515625 L 46.21875 -157.515625 Z M 46.21875 0 "/></g></g></g><g fill="#000000" fill-opacity="1"><g transform="translate(1211.809061, 355.942146)"><g><path d="M 104.484375 0 L 68.359375 0 L 68.359375 -123.71875 L 3.890625 -123.71875 L 3.890625 -157.515625 L 168.96875 -157.515625 L 168.96875 -123.71875 L 104.484375 -123.71875 Z M 104.484375 0 "/></g></g></g><g clip-path="url(#82f93e6fbe)"><g clip-path="url(#5a2f922830)"><path stroke-linecap="butt" transform="matrix(0.748614, 0, 0, 0.748614, 55.23105, 108.219053)" fill="none" stroke-linejoin="miter" d="M 216.9993 -0.000405054 C 97.152767 -0.000405054 -0.000776606 96.453929 -0.000776606 215.439495 C -0.000776606 334.425062 97.152767 430.879396 216.9993 430.879396 C 336.845832 430.879396 433.999376 334.425062 433.999376 215.439495 C 433.999376 96.453929 336.845832 -0.000405054 216.9993 -0.000405054 Z M 216.9993 -0.000405054 " stroke="#0c0c0c" stroke-width="40" stroke-opacity="1" stroke-miterlimit="4"/></g></g><g clip-path="url(#ef6af2fbca)"><g clip-path="url(#1c577ff215)"><path stroke-linecap="butt" transform="matrix(0.748614, 0, 0, 0.748614, 68.895882, 121.780964)" fill="none" stroke-linejoin="miter" d="M 198.751001 0.000381455 C 88.985603 0.000381455 -0.00180425 88.340759 -0.00180425 197.318242 C -0.00180425 306.295725 88.985603 394.641321 198.751001 394.641321 C 308.516399 394.641321 397.498588 306.295725 397.498588 197.318242 C 397.498588 88.340759 308.516399 0.000381455 198.751001 0.000381455 Z M 198.751001 0.000381455 " stroke="#770cf5" stroke-width="36" stroke-opacity="1" stroke-miterlimit="4"/></g></g><g clip-path="url(#5dddc725b9)"><path fill="#000000" d="M 123.757812 262.875 C 125.074219 243.851562 132.023438 225.980469 143.953125 210.976562 C 151.648438 214.3125 159.855469 217.132812 168.421875 219.359375 C 164.484375 233.066406 162.242188 247.6875 161.746094 262.875 Z M 211.058594 324.886719 L 211.058594 362.546875 C 200.257812 358.921875 190.214844 346.492188 183.019531 327.800781 C 191.777344 326.171875 201.183594 325.207031 211.058594 324.886719 Z M 187.648438 358.652344 C 174.3125 354.160156 162.148438 346.710938 151.988281 336.792969 C 158.125 334.359375 164.804688 332.214844 171.914062 330.414062 C 176.148438 341.722656 181.511719 351.324219 187.648438 358.652344 Z M 173.074219 276.007812 L 211.058594 276.007812 L 211.058594 313.433594 C 200.199219 313.78125 189.578125 314.976562 179.40625 316.976562 C 175.753906 304.304688 173.582031 290.226562 173.074219 276.007812 Z M 211.058594 225.441406 L 211.058594 262.871094 L 173.074219 262.871094 C 173.585938 248.644531 175.753906 234.578125 179.40625 221.90625 C 189.625 223.914062 200.25 225.101562 211.058594 225.441406 Z M 151.988281 202.089844 C 162.15625 192.175781 174.320312 184.726562 187.648438 180.238281 C 181.515625 187.546875 176.160156 197.152344 171.914062 208.46875 C 164.8125 206.664062 158.125 204.519531 151.988281 202.089844 Z M 183.019531 211.082031 C 190.210938 192.367188 200.265625 179.945312 211.058594 176.34375 L 211.058594 214.003906 C 201.175781 213.671875 191.769531 212.699219 183.019531 211.082031 Z M 168.417969 319.519531 C 159.871094 321.753906 151.652344 324.570312 143.949219 327.90625 C 132.023438 312.917969 125.070312 295.042969 123.753906 276.007812 L 161.738281 276.007812 C 162.238281 291.183594 164.480469 305.800781 168.417969 319.519531 Z M 311.492188 275.96875 C 310.167969 295.035156 303.226562 312.921875 291.296875 327.90625 C 283.582031 324.570312 275.367188 321.757812 266.824219 319.527344 C 270.757812 305.824219 273 291.203125 273.503906 275.964844 L 311.492188 275.964844 Z M 224.191406 214.003906 L 224.191406 176.34375 C 234.992188 179.945312 245.035156 192.378906 252.230469 211.082031 C 243.480469 212.699219 234.074219 213.671875 224.191406 214.003906 Z M 263.339844 208.46875 C 259.097656 197.15625 253.738281 187.546875 247.597656 180.238281 C 260.921875 184.722656 273.097656 192.171875 283.257812 202.089844 C 277.117188 204.519531 270.4375 206.664062 263.339844 208.46875 Z M 262.167969 262.875 L 224.191406 262.875 L 224.191406 225.445312 C 235.03125 225.097656 245.65625 223.902344 255.835938 221.910156 C 259.488281 234.5625 261.667969 248.636719 262.167969 262.875 Z M 273.5 262.875 C 273.003906 247.695312 270.761719 233.082031 266.820312 219.371094 C 275.378906 217.136719 283.589844 214.320312 291.300781 210.980469 C 303.226562 225.976562 310.171875 243.839844 311.488281 262.878906 L 273.5 262.878906 Z M 224.191406 313.441406 L 224.191406 275.96875 L 262.167969 275.96875 C 261.664062 290.234375 259.488281 304.320312 255.839844 316.972656 C 245.660156 314.96875 235.03125 313.777344 224.191406 313.441406 Z M 283.261719 336.792969 C 273.101562 346.707031 260.925781 354.152344 247.59375 358.652344 C 253.734375 351.324219 259.097656 341.726562 263.335938 330.414062 C 270.453125 332.222656 277.132812 334.359375 283.261719 336.792969 Z M 252.222656 327.800781 C 245.039062 346.496094 234.992188 358.917969 224.191406 362.546875 L 224.191406 324.886719 C 234.03125 325.207031 243.433594 326.171875 252.222656 327.800781 Z M 217.621094 163.886719 C 159.425781 163.886719 112.070312 211.242188 112.070312 269.445312 C 112.070312 327.640625 159.425781 374.996094 217.621094 374.996094 C 275.824219 374.996094 323.179688 327.640625 323.179688 269.445312 C 323.179688 211.242188 275.824219 163.886719 217.621094 163.886719 Z M 217.621094 163.886719 " fill-opacity="1" fill-rule="evenodd"/></g><g clip-path="url(#d4019f4d40)"><path fill="#ffffff" d="M 272.484375 155.601562 C 248.484375 155.601562 229.023438 175.066406 229.023438 199.0625 C 229.023438 231.65625 272.484375 279.773438 272.484375 279.773438 C 272.484375 279.773438 315.941406 231.65625 315.941406 199.0625 C 315.941406 175.066406 296.480469 155.601562 272.484375 155.601562 Z M 272.484375 214.582031 C 263.914062 214.582031 256.960938 207.628906 256.960938 199.0625 C 256.960938 190.492188 263.914062 183.539062 272.484375 183.539062 C 281.050781 183.539062 288.003906 190.492188 288.003906 199.0625 C 288.003906 207.628906 281.050781 214.582031 272.484375 214.582031 Z M 272.484375 214.582031 " fill-opacity="1" fill-rule="nonzero"/></g><g clip-path="url(#36779622a2)"><g clip-path="url(#7360653757)"><path fill="#ffffff" d="M 247.941406 173.082031 L 297.03125 173.082031 L 297.03125 222.171875 L 247.941406 222.171875 Z M 247.941406 173.082031 " fill-opacity="1" fill-rule="nonzero"/></g></g><g clip-path="url(#f5dbe5aaab)"><path fill="#770cf5" d="M 272.484375 166.429688 C 253.609375 166.429688 238.296875 181.742188 238.296875 200.617188 C 238.296875 226.253906 272.484375 264.101562 272.484375 264.101562 C 272.484375 264.101562 306.667969 226.253906 306.667969 200.617188 C 306.667969 181.742188 291.359375 166.429688 272.484375 166.429688 Z M 272.484375 212.824219 C 265.742188 212.824219 260.273438 207.355469 260.273438 200.617188 C 260.273438 193.875 265.742188 188.40625 272.484375 188.40625 C 279.222656 188.40625 284.691406 193.875 284.691406 200.617188 C 284.691406 207.355469 279.222656 212.824219 272.484375 212.824219 Z M 272.484375 212.824219 " fill-opacity="1" fill-rule="nonzero"/></g></svg>