<svg xmlns="http://www.w3.org/2000/svg" xmlns:xlink="http://www.w3.org/1999/xlink" width="500" zoomAndPan="magnify" viewBox="0 0 375 374.999991" height="500" preserveAspectRatio="xMidYMid meet" version="1.0"><defs><g/><clipPath id="0963dc2cf9"><path d="M 32.648438 128.359375 L 151.867188 128.359375 L 151.867188 246.5625 L 32.648438 246.5625 Z M 32.648438 128.359375 " clip-rule="nonzero"/></clipPath><clipPath id="e4f61b4a13"><path d="M 92.21875 128.359375 C 59.316406 128.359375 32.648438 154.835938 32.648438 187.5 C 32.648438 220.164062 59.316406 246.640625 92.21875 246.640625 C 125.117188 246.640625 151.785156 220.164062 151.785156 187.5 C 151.785156 154.835938 125.117188 128.359375 92.21875 128.359375 Z M 92.21875 128.359375 " clip-rule="nonzero"/></clipPath><clipPath id="f13dc3fd87"><path d="M 37.660156 133.332031 L 146.773438 133.332031 L 146.773438 241.667969 L 37.660156 241.667969 Z M 37.660156 133.332031 " clip-rule="nonzero"/></clipPath><clipPath id="29ac7d2cd6"><path d="M 92.21875 133.332031 C 62.085938 133.332031 37.660156 157.582031 37.660156 187.5 C 37.660156 217.414062 62.085938 241.667969 92.21875 241.667969 C 122.351562 241.667969 146.777344 217.414062 146.777344 187.5 C 146.777344 157.582031 122.351562 133.332031 92.21875 133.332031 Z M 92.21875 133.332031 " clip-rule="nonzero"/></clipPath><clipPath id="f3ada87797"><path d="M 53.492188 148.769531 L 130.949219 148.769531 L 130.949219 226.230469 L 53.492188 226.230469 Z M 53.492188 148.769531 " clip-rule="nonzero"/></clipPath><clipPath id="0961228c4a"><path d="M 96.375 145.730469 L 128.371094 145.730469 L 128.371094 191.195312 L 96.375 191.195312 Z M 96.375 145.730469 " clip-rule="nonzero"/></clipPath><clipPath id="0e655b558a"><path d="M 103.316406 152.144531 L 121.316406 152.144531 L 121.316406 170.144531 L 103.316406 170.144531 Z M 103.316406 152.144531 " clip-rule="nonzero"/></clipPath><clipPath id="6961753c61"><path d="M 112.316406 152.144531 C 107.34375 152.144531 103.316406 156.171875 103.316406 161.144531 C 103.316406 166.113281 107.34375 170.144531 112.316406 170.144531 C 117.285156 170.144531 121.316406 166.113281 121.316406 161.144531 C 121.316406 156.171875 117.285156 152.144531 112.316406 152.144531 Z M 112.316406 152.144531 " clip-rule="nonzero"/></clipPath><clipPath id="ab2738d1ec"><path d="M 99.777344 149.703125 L 124.699219 149.703125 L 124.699219 185.398438 L 99.777344 185.398438 Z M 99.777344 149.703125 " clip-rule="nonzero"/></clipPath></defs><g fill="#000000" fill-opacity="1"><g transform="translate(158.190692, 203.465333)"><g><path d="M 19.890625 0 L 13.015625 0 L 13.015625 -23.546875 L 0.734375 -23.546875 L 0.734375 -29.984375 L 32.15625 -29.984375 L 32.15625 -23.546875 L 19.890625 -23.546875 Z M 19.890625 0 "/></g></g></g><g fill="#000000" fill-opacity="1"><g transform="translate(191.085375, 203.465333)"><g><path d="M 8.828125 0 L 1.890625 0 L 1.890625 -20.8125 C 3.097656 -20.957031 4.410156 -21.085938 5.828125 -21.203125 C 7.242188 -21.316406 8.644531 -21.398438 10.03125 -21.453125 C 11.425781 -21.515625 12.695312 -21.5625 13.84375 -21.59375 C 14.988281 -21.632812 15.894531 -21.65625 16.5625 -21.65625 L 21.03125 -21.65625 L 21.03125 -15.234375 L 13.609375 -15.234375 C 13.160156 -15.234375 12.632812 -15.21875 12.03125 -15.1875 C 11.425781 -15.164062 10.832031 -15.132812 10.25 -15.09375 C 9.675781 -15.0625 9.203125 -15.019531 8.828125 -14.96875 Z M 8.828125 0 "/></g></g></g><g fill="#000000" fill-opacity="1"><g transform="translate(213.483326, 203.465333)"><g><path d="M 15.421875 -22.4375 C 18.597656 -22.4375 21.101562 -22.132812 22.9375 -21.53125 C 24.769531 -20.925781 26.070312 -20.007812 26.84375 -18.78125 C 27.625 -17.550781 28.015625 -15.984375 28.015625 -14.078125 L 28.015625 -0.515625 C 26.316406 -0.265625 24.601562 -0.0546875 22.875 0.109375 C 21.15625 0.285156 19.507812 0.414062 17.9375 0.5 C 16.375 0.582031 14.976562 0.625 13.75 0.625 C 9.707031 0.625 6.640625 0.0703125 4.546875 -1.03125 C 2.453125 -2.144531 1.40625 -3.929688 1.40625 -6.390625 L 1.40625 -6.4375 C 1.40625 -7.789062 1.796875 -8.957031 2.578125 -9.9375 C 3.367188 -10.925781 4.640625 -11.695312 6.390625 -12.25 C 8.140625 -12.8125 10.46875 -13.09375 13.375 -13.09375 C 14.539062 -13.09375 15.738281 -13.070312 16.96875 -13.03125 C 18.195312 -12.988281 19.515625 -12.910156 20.921875 -12.796875 L 20.921875 -12.90625 C 20.921875 -13.71875 20.753906 -14.398438 20.421875 -14.953125 C 20.085938 -15.503906 19.441406 -15.925781 18.484375 -16.21875 C 17.523438 -16.519531 16.082031 -16.671875 14.15625 -16.671875 C 12.351562 -16.671875 10.46875 -16.535156 8.5 -16.265625 C 6.53125 -15.992188 4.671875 -15.632812 2.921875 -15.1875 L 4.515625 -21.25 C 6.109375 -21.570312 7.851562 -21.847656 9.75 -22.078125 C 11.65625 -22.316406 13.546875 -22.4375 15.421875 -22.4375 Z M 8.5 -6.796875 L 8.5 -6.765625 C 8.5 -6.003906 9.019531 -5.4375 10.0625 -5.0625 C 11.113281 -4.695312 12.984375 -4.515625 15.671875 -4.515625 C 16.898438 -4.515625 17.953125 -4.53125 18.828125 -4.5625 C 19.703125 -4.601562 20.453125 -4.660156 21.078125 -4.734375 L 21.078125 -8.765625 C 20.304688 -8.890625 19.429688 -8.972656 18.453125 -9.015625 C 17.484375 -9.066406 16.554688 -9.09375 15.671875 -9.09375 C 13.160156 -9.09375 11.335938 -8.925781 10.203125 -8.59375 C 9.066406 -8.257812 8.5 -7.660156 8.5 -6.796875 Z M 8.5 -6.796875 "/></g></g></g><g fill="#000000" fill-opacity="1"><g transform="translate(243.421187, 203.465333)"><g><path d="M 15.828125 0.484375 C 12.566406 0.484375 9.875 -0.0078125 7.75 -1 C 5.632812 -1.988281 4.050781 -3.347656 3 -5.078125 C 1.957031 -6.816406 1.4375 -8.796875 1.4375 -11.015625 L 1.4375 -11.046875 C 1.4375 -13.265625 1.957031 -15.226562 3 -16.9375 C 4.050781 -18.65625 5.644531 -20 7.78125 -20.96875 C 9.914062 -21.945312 12.609375 -22.4375 15.859375 -22.4375 C 17.753906 -22.4375 19.613281 -22.257812 21.4375 -21.90625 C 23.257812 -21.550781 24.835938 -21.125 26.171875 -20.625 L 23.4375 -15.046875 C 22.53125 -15.390625 21.460938 -15.671875 20.234375 -15.890625 C 19.015625 -16.117188 17.703125 -16.234375 16.296875 -16.234375 C 13.835938 -16.234375 11.929688 -15.804688 10.578125 -14.953125 C 9.222656 -14.097656 8.546875 -12.796875 8.546875 -11.046875 L 8.546875 -10.984375 C 8.546875 -9.179688 9.222656 -7.847656 10.578125 -6.984375 C 11.929688 -6.117188 13.863281 -5.6875 16.375 -5.6875 C 17.65625 -5.6875 18.925781 -5.800781 20.1875 -6.03125 C 21.445312 -6.269531 22.566406 -6.578125 23.546875 -6.953125 L 26.203125 -1.328125 C 25.441406 -0.960938 24.453125 -0.644531 23.234375 -0.375 C 22.015625 -0.101562 20.75 0.101562 19.4375 0.25 C 18.132812 0.40625 16.929688 0.484375 15.828125 0.484375 Z M 15.828125 0.484375 "/></g></g></g><g fill="#000000" fill-opacity="1"><g transform="translate(270.365262, 203.465333)"><g><path d="M 8.875 -11.046875 L 8.953125 -10.984375 L 8.875 -10.875 L 8.875 0 L 1.890625 0 L 1.890625 -29.984375 L 8.875 -29.984375 Z M 17.40625 -11.390625 L 28.390625 0 L 19.484375 0 L 8.953125 -10.984375 L 19.453125 -21.515625 L 28.203125 -21.515625 Z M 17.40625 -11.390625 "/></g></g></g><g fill="#000000" fill-opacity="1"><g transform="translate(298.750785, 203.465333)"><g><path d="M 8.796875 0 L 1.890625 0 L 1.890625 -29.984375 L 8.796875 -29.984375 Z M 8.796875 0 "/></g></g></g><g fill="#000000" fill-opacity="1"><g transform="translate(309.432315, 203.465333)"><g><path d="M 19.890625 0 L 13.015625 0 L 13.015625 -23.546875 L 0.734375 -23.546875 L 0.734375 -29.984375 L 32.15625 -29.984375 L 32.15625 -23.546875 L 19.890625 -23.546875 Z M 19.890625 0 "/></g></g></g><g clip-path="url(#0963dc2cf9)"><g clip-path="url(#e4f61b4a13)"><path stroke-linecap="butt" transform="matrix(0.336775, 0, 0, 0.336775, 32.647682, 128.358448)" fill="none" stroke-linejoin="miter" d="M 176.887106 0.00275386 C 79.188667 0.00275386 0.00224371 78.620826 0.00224371 175.611725 C 0.00224371 272.602625 79.188667 351.220697 176.887106 351.220697 C 274.573946 351.220697 353.760369 272.602625 353.760369 175.611725 C 353.760369 78.620826 274.573946 0.00275386 176.887106 0.00275386 Z M 176.887106 0.00275386 " stroke="#0c0c0c" stroke-width="31.178129" stroke-opacity="1" stroke-miterlimit="4"/></g></g><g clip-path="url(#f13dc3fd87)"><g clip-path="url(#29ac7d2cd6)"><path stroke-linecap="butt" transform="matrix(0.336775, 0, 0, 0.336775, 37.658428, 133.331329)" fill="none" stroke-linejoin="miter" d="M 162.008466 0.00208568 C 72.533724 0.00208568 0.0051305 72.008723 0.0051305 160.845521 C 0.0051305 249.670719 72.533724 321.688956 162.008466 321.688956 C 251.483209 321.688956 324.011802 249.670719 324.011802 160.845521 C 324.011802 72.008723 251.483209 0.00208568 162.008466 0.00208568 Z M 162.008466 0.00208568 " stroke="#770cf5" stroke-width="22.270092" stroke-opacity="1" stroke-miterlimit="4"/></g></g><g clip-path="url(#f3ada87797)"><path fill="#000000" d="M 57.777344 185.089844 C 58.261719 178.109375 60.8125 171.554688 65.1875 166.046875 C 68.011719 167.273438 71.023438 168.308594 74.167969 169.125 C 72.722656 174.152344 71.898438 179.519531 71.714844 185.089844 Z M 89.8125 207.84375 L 89.8125 221.664062 C 85.847656 220.332031 82.164062 215.769531 79.523438 208.914062 C 82.734375 208.316406 86.1875 207.960938 89.8125 207.84375 Z M 81.21875 220.230469 C 76.328125 218.582031 71.867188 215.851562 68.136719 212.210938 C 70.390625 211.320312 72.839844 210.53125 75.449219 209.871094 C 77.003906 214.023438 78.96875 217.542969 81.21875 220.230469 Z M 75.871094 189.910156 L 89.8125 189.910156 L 89.8125 203.640625 C 85.828125 203.769531 81.929688 204.207031 78.195312 204.941406 C 76.855469 200.292969 76.058594 195.125 75.871094 189.910156 Z M 89.8125 171.355469 L 89.8125 185.089844 L 75.871094 185.089844 C 76.0625 179.871094 76.855469 174.707031 78.195312 170.058594 C 81.945312 170.796875 85.84375 171.230469 89.8125 171.355469 Z M 68.136719 162.789062 C 71.867188 159.148438 76.332031 156.417969 81.21875 154.769531 C 78.972656 157.453125 77.003906 160.976562 75.449219 165.128906 C 72.84375 164.46875 70.390625 163.679688 68.136719 162.789062 Z M 79.523438 166.085938 C 82.160156 159.222656 85.851562 154.664062 89.8125 153.34375 L 89.8125 167.160156 C 86.183594 167.039062 82.734375 166.679688 79.523438 166.085938 Z M 74.164062 205.875 C 71.027344 206.695312 68.015625 207.726562 65.1875 208.953125 C 60.8125 203.453125 58.261719 196.894531 57.777344 189.910156 L 71.714844 189.910156 C 71.898438 195.476562 72.71875 200.839844 74.164062 205.875 Z M 126.660156 189.894531 C 126.175781 196.890625 123.628906 203.453125 119.25 208.953125 C 116.421875 207.726562 113.40625 206.695312 110.273438 205.878906 C 111.714844 200.847656 112.535156 195.484375 112.722656 189.894531 Z M 94.628906 167.160156 L 94.628906 153.34375 C 98.589844 154.664062 102.277344 159.226562 104.917969 166.085938 C 101.707031 166.679688 98.253906 167.039062 94.628906 167.160156 Z M 108.992188 165.128906 C 107.4375 160.976562 105.46875 157.453125 103.21875 154.769531 C 108.105469 156.417969 112.574219 159.148438 116.300781 162.789062 C 114.046875 163.679688 111.597656 164.46875 108.992188 165.128906 Z M 108.5625 185.089844 L 94.628906 185.089844 L 94.628906 171.359375 C 98.605469 171.230469 102.503906 170.792969 106.238281 170.0625 C 107.578125 174.703125 108.378906 179.867188 108.5625 185.089844 Z M 112.722656 185.089844 C 112.539062 179.523438 111.714844 174.160156 110.269531 169.128906 C 113.410156 168.308594 116.421875 167.277344 119.253906 166.050781 C 123.628906 171.554688 126.175781 178.105469 126.660156 185.09375 L 112.722656 185.09375 Z M 94.628906 203.644531 L 94.628906 189.894531 L 108.5625 189.894531 C 108.378906 195.128906 107.578125 200.296875 106.242188 204.941406 C 102.507812 204.203125 98.605469 203.769531 94.628906 203.644531 Z M 116.304688 212.210938 C 112.574219 215.851562 108.109375 218.582031 103.214844 220.230469 C 105.46875 217.542969 107.4375 214.023438 108.992188 209.871094 C 111.601562 210.535156 114.054688 211.320312 116.304688 212.210938 Z M 104.914062 208.914062 C 102.277344 215.773438 98.589844 220.328125 94.628906 221.664062 L 94.628906 207.84375 C 98.238281 207.960938 101.691406 208.316406 104.914062 208.914062 Z M 92.21875 148.769531 C 70.867188 148.769531 53.492188 166.144531 53.492188 187.5 C 53.492188 208.855469 70.867188 226.230469 92.21875 226.230469 C 113.574219 226.230469 130.949219 208.855469 130.949219 187.5 C 130.949219 166.144531 113.574219 148.769531 92.21875 148.769531 Z M 92.21875 148.769531 " fill-opacity="1" fill-rule="evenodd"/></g><g clip-path="url(#0961228c4a)"><path fill="#ffffff" d="M 112.3125 145.734375 C 103.515625 145.734375 96.375 152.871094 96.375 161.671875 C 96.375 173.625 112.3125 191.269531 112.3125 191.269531 C 112.3125 191.269531 128.25 173.625 128.25 161.671875 C 128.25 152.871094 121.113281 145.734375 112.3125 145.734375 Z M 112.3125 167.363281 C 109.171875 167.363281 106.621094 164.8125 106.621094 161.671875 C 106.621094 158.53125 109.171875 155.980469 112.3125 155.980469 C 115.453125 155.980469 118.003906 158.53125 118.003906 161.671875 C 118.003906 164.8125 115.453125 167.363281 112.3125 167.363281 Z M 112.3125 167.363281 " fill-opacity="1" fill-rule="nonzero"/></g><g clip-path="url(#0e655b558a)"><g clip-path="url(#6961753c61)"><path fill="#ffffff" d="M 103.316406 152.144531 L 121.316406 152.144531 L 121.316406 170.144531 L 103.316406 170.144531 Z M 103.316406 152.144531 " fill-opacity="1" fill-rule="nonzero"/></g></g><g clip-path="url(#ab2738d1ec)"><path fill="#770cf5" d="M 112.316406 149.703125 C 105.394531 149.703125 99.777344 155.316406 99.777344 162.238281 C 99.777344 171.640625 112.316406 185.519531 112.316406 185.519531 C 112.316406 185.519531 124.851562 171.640625 124.851562 162.238281 C 124.851562 155.316406 119.238281 149.703125 112.316406 149.703125 Z M 112.316406 166.714844 C 109.84375 166.714844 107.839844 164.710938 107.839844 162.238281 C 107.839844 159.765625 109.84375 157.761719 112.316406 157.761719 C 114.785156 157.761719 116.792969 159.765625 116.792969 162.238281 C 116.792969 164.710938 114.785156 166.714844 112.316406 166.714844 Z M 112.316406 166.714844 " fill-opacity="1" fill-rule="nonzero"/></g></svg>